<svg xmlns="http://www.w3.org/2000/svg" viewBox="0 0 96 64"><path d="M4.65 62.21c-.99-.63-1.63-1.45-1.91-2.49s-.48-2.77-.6-5.21c-.12-3.69-.44-9.44-.93-17.27L.56 25.13C.19 18.61.01 12.07 0 5.53c0-1.51.67-2.77 2-3.8S5.03.18 7.07.18c1.87 0 3.23.52 4.09 1.55.87 1.03 1.31 2.61 1.31 4.73l.09 37.35v9.29c4.96-11.07 10.64-22.69 17.03-34.87C35.97 6.08 40.07 0 41.87 0c2.29 0 4.16.53 5.59 1.6s2.17 2.32 2.23 3.76c-.37.81-1.89 3.69-4.56 8.64l-4.37 7.79-3.16 5.91-13.13 23.93c-2.48 4.37-4.56 7.48-6.23 9.29-.75.88-1.88 1.61-3.4 2.2s-3.19.88-4.97.88c-2.5-.56-4.23-1.16-5.22-1.79z" fill="#00796b"/><path d="M93.25 29.13c1.21.91 1.97 2 2.28 3.28s.47 2.92.47 4.93c0 5.25-1.43 9.89-4.28 13.93s-6.57 7.16-11.16 9.39C75.97 62.88 71.11 64 65.96 64c-7.44 0-12.89-2.09-16.37-6.29-3.48-4.19-5.21-9.32-5.21-15.39 0-7.39 1.43-14.32 4.28-20.83S55.21 9.77 59.77 5.87 69.03 0 73.87 0c4.52 0 8.4.69 11.63 2.07 3.23 1.37 5.64 3.17 7.25 5.4s2.41 4.52 2.41 6.89c0 1.95-.63 3.44-1.87 4.51s-3.04 1.6-5.4 1.6c-1.87 0-3.17-.71-3.95-2.11-.77-1.41-1.16-2.96-1.16-4.64 0-.81-.48-1.65-1.44-2.53s-2.16-1.32-3.59-1.32c-3.41 0-6.83 1.55-10.23 4.64-3.41 3.09-6.2 7.32-8.37 12.67s-3.25 11.21-3.25 17.6c0 2.95 1.03 5.31 3.07 7.08s4.75 2.68 8.09 2.68c2.41 0 5.03-.75 7.81-2.25 2.79-1.51 5.15-3.51 7.07-6 1.92-2.51 2.88-5.19 2.88-8.07-.63.07-1.4.25-2.32.56-1.17.37-2.25.65-3.21.84s-2.28.28-3.95.28c-1.99 0-3.45-.27-4.41-.8s-1.44-1.48-1.44-2.87c0-.93.23-2.03.69-3.28.47-1.25 1.04-2.16 1.72-2.72 3.04-.81 5.68-1.43 7.91-1.83s4.84-.61 7.81-.61c2.55-.02 4.43.44 5.63 1.34z" fill="#f57c00"/></svg>