<svg xmlns="http://www.w3.org/2000/svg" viewBox="0 0 96 96"><path d="M96 24v48c0 13.25-10.75 24-24 24H24C10.75 96 0 85.25 0 72V24C0 10.75 10.75 0 24 0h48c13.25 0 24 10.75 24 24z" fill="#fff"/><path d="M15.49 70.66c-.74-.47-1.22-1.09-1.43-1.87s-.36-2.08-.45-3.91c-.09-2.77-.33-7.08-.7-12.95l-.49-9.08a268.46 268.46 0 0 1-.42-14.7c0-1.13.5-2.08 1.5-2.85s2.27-1.16 3.8-1.16c1.4 0 2.42.39 3.07 1.16s.98 1.96.98 3.55l.07 28.01v6.97c3.72-8.3 7.98-17.02 12.77-26.15C38.98 28.56 42.05 24 43.4 24c1.72 0 3.12.4 4.19 1.2s1.63 1.74 1.67 2.82c-.28.61-1.42 2.77-3.42 6.48l-3.28 5.84-2.37 4.43-9.84 17.95c-1.86 3.28-3.42 5.61-4.67 6.97-.56.66-1.41 1.21-2.55 1.65s-2.39.66-3.73.66c-1.87-.42-3.17-.87-3.91-1.34z" fill="#00796b"/><path d="M81.94 45.85c.91.68 1.48 1.5 1.71 2.46s.35 2.19.35 3.7c0 3.94-1.07 7.42-3.21 10.45s-4.93 5.37-8.37 7.04c-3.44 1.66-7.09 2.5-10.95 2.5-5.58 0-9.67-1.57-12.28-4.72-2.61-3.14-3.91-6.99-3.91-11.54 0-5.54 1.07-10.74 3.21-15.62s4.92-8.79 8.34-11.72S63.77 24 67.4 24c3.39 0 6.3.52 8.72 1.55s4.23 2.38 5.44 4.05 1.81 3.39 1.81 5.17c0 1.46-.47 2.58-1.4 3.38s-2.28 1.2-4.05 1.2c-1.4 0-2.38-.53-2.96-1.58-.58-1.06-.87-2.22-.87-3.48 0-.61-.36-1.24-1.08-1.9s-1.62-.99-2.69-.99c-2.56 0-5.12 1.16-7.67 3.48-2.56 2.32-4.65 5.49-6.28 9.5s-2.44 8.41-2.44 13.2c0 2.21.77 3.98 2.3 5.31s3.56 2.01 6.07 2.01c1.81 0 3.77-.56 5.86-1.69s3.86-2.63 5.3-4.5c1.44-1.88 2.16-3.89 2.16-6.05-.47.05-1.05.19-1.74.42-.88.28-1.69.49-2.41.63s-1.71.21-2.96.21c-1.49 0-2.59-.2-3.31-.6s-1.08-1.11-1.08-2.15c0-.7.17-1.52.52-2.46s.78-1.62 1.29-2.04c2.28-.61 4.26-1.07 5.93-1.37s3.63-.46 5.86-.46c1.91-.01 3.32.33 4.22 1.01z" fill="#f57c00"/></svg>