<svg xmlns="http://www.w3.org/2000/svg" viewBox="0 0 96 18"><path d="M.96 12.94c-.2-.13-.34-.3-.39-.52-.06-.22-.1-.58-.12-1.08L.26 7.75.13 5.23 0 1.15C0 .84.14.57.41.36S1.04.04 1.46.04c.38 0 .67.11.85.32.18.22.27.54.27.99l.02 7.77v1.93L6.12 3.8C7.43 1.27 8.28 0 8.65 0c.47 0 .86.11 1.15.33s.45.48.46.78l-.94 1.8-.9 1.62-.66 1.23-2.71 4.98c-.51.91-.94 1.56-1.29 1.93-.15.18-.39.34-.7.46s-.66.18-1.03.18c-.51-.11-.86-.24-1.07-.37zm11.97.07c-.41.2-.87.3-1.38.3-.85 0-1.5-.27-1.95-.8-.46-.53-.68-1.24-.68-2.13a3.48 3.48 0 0 1 .12-.86l1.29-5.09c.08-.29.22-.5.41-.63.2-.14.52-.2.97-.2.67 0 1 .19 1 .57 0 .16-.05.4-.13.74l-1.29 5.23c-.04.16-.06.31-.06.47 0 .27.07.5.21.66.14.17.37.25.67.25.4 0 .83-.12 1.29-.35s.85-.52 1.17-.86l.37-1.54.84-3.38c.14-.52.32-.95.55-1.28s.58-.5 1.07-.5c.68 0 1.02.21 1.02.62 0 .07-.02.15-.05.24l-.07.24-.64 2.69-1.31 5.45c-.33 1.3-.71 2.32-1.13 3.06s-.95 1.28-1.59 1.6c-.63.33-1.44.49-2.42.49-.63 0-1.14-.09-1.55-.27s-.7-.4-.89-.66-.28-.5-.28-.72c0-.64.35-.96 1.04-.96a.84.84 0 0 1 .47.12 1.83 1.83 0 0 1 .37.33 2.82 2.82 0 0 0 .53.41c.16.09.38.14.66.14.22 0 .46-.09.73-.27s.53-.47.79-.86.47-.88.63-1.46l.48-1.7c-.42.4-.85.71-1.26.91zm13.34-.2c-.03.08-.14.16-.34.23-.2.08-.37.12-.51.12-.46 0-.79-.07-.99-.2-.2-.14-.3-.34-.3-.61a4.13 4.13 0 0 1 .08-.78c-.28.39-.7.71-1.24.97-.54.25-.98.38-1.32.38-.86 0-1.57-.25-2.14-.76s-.86-1.32-.86-2.44c0-1.06.25-2.05.74-2.98s1.17-1.68 2.05-2.25c.87-.57 1.84-.85 2.9-.85.2 0 .47.06.81.17a3.35 3.35 0 0 1 1.01.57c.34.27.62.61.86 1.02.1 0 .22.05.36.16.14.1.21.21.21.31 0 .12-.02.23-.06.35l-1.4 5.68a7.58 7.58 0 0 0 .14.91zM24.82 5.7c-.23-.19-.43-.29-.61-.29-.59 0-1.14.21-1.66.63s-.94.95-1.26 1.57-.48 1.22-.48 1.78c0 .55.06 1 .19 1.35a.74.74 0 0 0 .75.53c.32 0 .69-.1 1.1-.29a3.99 3.99 0 0 0 1.12-.79c.33-.33.54-.68.64-1.04l.65-2.71a1.29 1.29 0 0 0-.44-.74zm5.25 8.48l-.68 2.55c-.05.14-.2.25-.46.32s-.44.11-.56.11c-.58 0-.88-.36-.92-1.07l1.23-6 1.5-6.18c.03-.19.14-.39.36-.58.21-.19.4-.28.57-.28.29 0 .54.09.74.26s.32.43.36.75c.51-.35 1.1-.53 1.77-.53.72 0 1.37.16 1.96.48a3.48 3.48 0 0 1 1.39 1.38c.34.6.51 1.3.51 2.09 0 .98-.19 1.9-.56 2.77a5.09 5.09 0 0 1-1.67 2.13c-.74.55-1.64.82-2.69.82-.33 0-.76-.11-1.29-.34s-.87-.5-1.04-.81l-.52 2.13zm1.06-4.28a1.4 1.4 0 0 0 .32.86c.2.25.43.44.7.58s.49.2.67.2c.56 0 1.06-.2 1.49-.6s.76-.91.99-1.52.35-1.21.35-1.8c0-.77-.19-1.35-.58-1.75-.38-.4-.86-.59-1.42-.59-.29 0-.59.06-.87.18a2.09 2.09 0 0 0-.76.53l-.85 3.59-.04.32zm14.49 3.15c-.33.09-.61.13-.86.13-.23 0-.38-.05-.45-.17-.07-.11-.13-.28-.18-.5l-.1-.45c-.55.38-1.11.67-1.68.87s-1.05.3-1.43.3c-.33 0-.71-.11-1.12-.33a3.3 3.3 0 0 1-1.07-.9c-.3-.38-.44-.79-.44-1.25 0-.73.24-1.66.71-2.79S40.14 5.84 41 5c.86-.85 1.87-1.27 3.03-1.27 1.01 0 1.91.16 2.71.49.8.32 1.19.78 1.19 1.38-.36.68-.75 1.69-1.16 3.04-.42 1.36-.62 2.36-.62 3.01 0 .43.03.74.1.92-.1.24-.31.4-.63.48zM44.6 8.39a14.17 14.17 0 0 1 1.01-2.37c-.07-.27-.27-.44-.61-.52a4.06 4.06 0 0 0-.91-.13c-.47 0-.99.32-1.54.98-.55.65-1.02 1.4-1.41 2.27s-.59 1.56-.59 2.1c0 .26.07.45.21.56a.85.85 0 0 0 .54.17c.29 0 .76-.11 1.41-.34s1.1-.45 1.35-.67c.11-.59.29-1.27.54-2.05zm6.02 4.24c-.03.22-.13.38-.29.47s-.43.14-.8.14c-.42 0-.74-.05-.94-.14s-.31-.29-.33-.59l.5-2.77.36-2 .38-1.94c.13-.92.31-1.53.54-1.83.23-.29.51-.44.85-.44.45 0 .75.07.89.19a.69.69 0 0 1 .24.51l-.15 1.15a4.98 4.98 0 0 1 1.37-1.26c.53-.33 1-.5 1.42-.5.56 0 1.01.1 1.33.3s.48.46.48.77c0 .23-.14.42-.41.55-.28.13-.64.22-1.09.25-.71.07-1.4.37-2.1.92-.69.55-1.19 1.19-1.5 1.93l-.69 3.81-.06.48z" fill="#00796b"/><path d="M66.18 6.06c.25.19.41.42.47.68.06.27.1.61.1 1.03 0 1.09-.3 2.06-.88 2.9-.59.84-1.36 1.49-2.31 1.95a6.82 6.82 0 0 1-3.02.69c-1.54 0-2.67-.44-3.38-1.31-.72-.87-1.08-1.94-1.08-3.2 0-1.54.29-2.98.88-4.33s1.35-2.44 2.3-3.25C60.2.41 61.17 0 62.17 0c.94 0 1.74.14 2.4.43.67.29 1.17.66 1.5 1.12s.5.94.5 1.43c0 .4-.13.72-.38.94-.26.22-.63.33-1.11.33-.38 0-.66-.15-.82-.44s-.24-.61-.24-.97c0-.17-.1-.34-.3-.53s-.44-.27-.74-.27c-.7 0-1.41.32-2.11.97-.71.64-1.28 1.52-1.73 2.64-.45 1.11-.67 2.33-.67 3.66 0 .61.21 1.1.63 1.47s.98.56 1.67.56c.5 0 1.04-.16 1.61-.47.58-.31 1.06-.73 1.46-1.25s.6-1.08.6-1.68c-.13.02-.29.06-.48.12-.24.08-.46.14-.66.18s-.47.06-.82.06c-.41 0-.71-.05-.91-.17-.2-.11-.3-.31-.3-.59 0-.2.05-.42.14-.68.1-.26.21-.45.36-.57l1.63-.38c.46-.08 1-.13 1.61-.13.53 0 .92.09 1.17.28zm9.25 6.85c-.17.09-.41.13-.7.13-.9 0-1.35-.2-1.35-.6l.81-2.27c-.53 1.08-1.14 1.87-1.84 2.38-.71.51-1.37.76-1.98.76-.79 0-1.35-.25-1.68-.75s-.49-1.23-.49-2.2c0-.2.03-.44.1-.72l1.21-5.21c.06-.29.19-.5.38-.63.19-.14.51-.2.96-.2.68 0 1.02.19 1.02.57 0 .1-.04.35-.11.74l-1.19 5.23a1.99 1.99 0 0 0-.12.64c0 .49.19.74.58.74.36 0 .84-.41 1.46-1.23.61-.82 1.2-1.78 1.76-2.89s.91-2.02 1.07-2.73c.06-.29.13-.5.2-.63.07-.14.2-.24.38-.31s.45-.11.81-.11c.69 0 1.04.21 1.04.62 0 .09-.04.25-.11.49l-.96 3.92-.88 3.81c-.09.22-.2.37-.37.45zm5.11-.29c-.05.23-.15.39-.33.48-.17.09-.45.14-.82.14-.42 0-.73-.05-.92-.14s-.29-.29-.29-.59l.92-3.73 1.02-4.1-.48-.58c-.04-.04-.06-.08-.06-.14 0-.13.14-.24.42-.32s.67-.13 1.17-.13c.45 0 .75.13.9.38s.25.58.29.99l-.13.51a5.52 5.52 0 0 1 1.43-1.26c.54-.33 1.03-.5 1.45-.5.55 0 .98.1 1.29.29.31.2.46.45.46.76 0 .27-.09.56-.28.85s-.42.54-.7.74-.56.32-.83.34c-.26 0-.43-.03-.52-.1s-.13-.16-.13-.29l.12-.64c-1.03.29-1.95.98-2.79 2.07l-1.12 4.51c0 .08-.03.23-.07.46zm13.06.68c-.18.09-.42.13-.71.13-.88 0-1.33-.2-1.33-.6l.12-.74c-.36.27-.78.55-1.27.82s-.89.41-1.21.41c-1.9 0-2.85-.63-2.85-1.89 0-2.15.64-4.48 1.9-6.99.15-.3.32-.51.49-.64s.47-.2.89-.2c.45 0 .79.06 1.01.19.22.12.34.27.34.44 0 .04-.07.16-.21.35a3.98 3.98 0 0 0-.36.51c-1.2 2.04-1.81 4.03-1.81 5.97 0 .17.06.32.19.45s.24.19.35.19c.28 0 .76-.14 1.43-.41s1.19-.55 1.55-.84l.38-1.58.86-3.48c.14-.52.32-.95.55-1.28s.58-.5 1.07-.5c.68 0 1.02.21 1.02.62 0 .07-.02.15-.05.24l-.07.24-.77 3.16-1.17 4.96c-.05.24-.16.39-.34.47z" fill="#f57c00"/></svg>